<svg width="81" height="73" viewBox="0 0 81 73" fill="none" xmlns="http://www.w3.org/2000/svg">
<rect width="80" height="72" transform="translate(0.5 0.0817871)" fill="#08254F"/>
<path d="M40.397 31.2255C44.2106 31.2255 47.3022 28.1339 47.3022 24.3203C47.3022 20.5067 44.2106 17.4152 40.397 17.4152C36.5834 17.4152 33.4919 20.5067 33.4919 24.3203C33.4919 28.1339 36.5834 31.2255 40.397 31.2255Z" stroke="#F8FAFC" stroke-width="3" stroke-miterlimit="10"/>
<path d="M45.1016 29.4044V57.7079H35.7683V29.4044" stroke="#F8FAFC" stroke-width="3" stroke-miterlimit="10" stroke-linejoin="round"/>
<path d="M35.7683 19.2363V12.7864C35.7683 10.2064 37.893 8.08179 40.4729 8.08179C43.0529 8.08179 45.1775 10.2064 45.1775 12.7864V19.2363" stroke="#F8FAFC" stroke-width="3" stroke-miterlimit="10" stroke-linejoin="round"/>
<path d="M64.9066 64.0817H15.8876V61.35C15.8876 59.3012 17.557 57.7077 19.5299 57.7077H61.1884C63.2372 57.7077 64.8307 59.3771 64.8307 61.35V64.0817H64.9066Z" stroke="#F8FAFC" stroke-width="3" stroke-miterlimit="10" stroke-linejoin="round"/>
<path d="M46.9228 21.8921H67.9418C69.3076 21.8921 70.3699 22.9544 70.3699 24.3202C70.3699 25.0032 70.0664 25.6102 69.687 26.0655C69.2317 26.5208 68.6247 26.7484 67.9418 26.7484H46.9228" stroke="#F8FAFC" stroke-width="3" stroke-miterlimit="10" stroke-linejoin="round"/>
<path d="M33.9472 26.7484H12.9282C11.5623 26.7484 10.5 25.6861 10.5 24.3202C10.5 23.6373 10.8035 23.0303 11.1829 22.575C11.5623 22.1197 12.2453 21.8921 12.9282 21.8921H33.9472" stroke="#F8FAFC" stroke-width="3" stroke-miterlimit="10" stroke-linejoin="round"/>
<path d="M28.7872 40.6346C28.7872 45.4909 24.8414 49.3608 20.061 49.3608C15.2805 49.3608 11.2588 45.4909 11.2588 40.6346H28.7872Z" stroke="#F8FAFC" stroke-width="3" stroke-miterlimit="10" stroke-linejoin="round"/>
<path d="M27.2697 40.6347L20.061 26.7485L12.7764 40.6347" stroke="#F8FAFC" stroke-width="3" stroke-miterlimit="10" stroke-linejoin="round"/>
<path d="M69.611 40.6346C69.611 45.4909 65.6652 49.3608 60.8847 49.3608C56.1042 49.3608 52.1584 45.415 52.1584 40.6346H69.611Z" stroke="#F8FAFC" stroke-width="3" stroke-miterlimit="10" stroke-linejoin="round"/>
<path d="M68.0176 40.6347L60.809 26.7485L53.6003 40.6347" stroke="#F8FAFC" stroke-width="3" stroke-miterlimit="10" stroke-linejoin="round"/>
<path d="M40.397 27.2796C42.0314 27.2796 43.3564 25.9547 43.3564 24.3203C43.3564 22.6859 42.0314 21.3609 40.397 21.3609C38.7626 21.3609 37.4377 22.6859 37.4377 24.3203C37.4377 25.9547 38.7626 27.2796 40.397 27.2796Z" stroke="#F8FAFC" stroke-width="3" stroke-miterlimit="10" stroke-linejoin="round"/>
<path d="M20.061 21.8921V18.5534" stroke="#F8FAFC" stroke-width="3" stroke-miterlimit="10" stroke-linecap="round" stroke-linejoin="round"/>
<path d="M60.809 21.8921V18.5534" stroke="#F8FAFC" stroke-width="3" stroke-miterlimit="10" stroke-linecap="round" stroke-linejoin="round"/>
<path d="M40.397 38.7375V50.1197" stroke="#F8FAFC" stroke-width="3" stroke-miterlimit="10" stroke-linecap="round" stroke-linejoin="round"/>
</svg>
