<svg width="81" height="73" viewBox="0 0 81 73" fill="none" xmlns="http://www.w3.org/2000/svg">
<rect width="80" height="72" transform="translate(0.166626 0.0817871)" fill="#08254F"/>
<path d="M52.5778 16.9292L54.9907 20.247L60.4198 15.1195" stroke="#F8FAFC" stroke-width="3" stroke-miterlimit="10" stroke-linecap="round" stroke-linejoin="round"/>
<path d="M18.5956 57.0441H62.1289C62.9332 57.0441 63.637 56.3404 63.637 55.536V38.2434H17.0875V55.4355C17.0875 56.3404 17.7913 57.0441 18.5956 57.0441Z" stroke="#F8FAFC" stroke-width="3" stroke-miterlimit="10" stroke-linejoin="round"/>
<path d="M48.0535 22.9616H40.4126H29.2528C28.2474 22.9616 27.3426 23.4643 26.7393 24.2686L17.0876 38.2434H40.4126H63.7375L56.5993 27.888" stroke="#F8FAFC" stroke-width="3" stroke-miterlimit="10" stroke-linejoin="round"/>
<path d="M54.7897 51.0117C52.9018 51.0117 51.3714 49.4813 51.3714 47.5934C51.3714 45.7055 52.9018 44.1751 54.7897 44.1751C56.6776 44.1751 58.208 45.7055 58.208 47.5934C58.208 49.4813 56.6776 51.0117 54.7897 51.0117Z" stroke="#F8FAFC" stroke-width="3" stroke-miterlimit="10" stroke-linejoin="round"/>
<path d="M26.0355 51.0117C24.1476 51.0117 22.6172 49.4813 22.6172 47.5934C22.6172 45.7055 24.1476 44.1751 26.0355 44.1751C27.9234 44.1751 29.4539 45.7055 29.4539 47.5934C29.4539 49.4813 27.9234 51.0117 26.0355 51.0117Z" stroke="#F8FAFC" stroke-width="3" stroke-miterlimit="10" stroke-linejoin="round"/>
<path d="M17.0875 38.2434H13.1665" stroke="#F8FAFC" stroke-width="3" stroke-miterlimit="10" stroke-linecap="round" stroke-linejoin="round"/>
<path d="M67.6586 38.2434H63.637" stroke="#F8FAFC" stroke-width="3" stroke-miterlimit="10" stroke-linecap="round" stroke-linejoin="round"/>
<path d="M45.0374 47.5935H35.6873" stroke="#F8FAFC" stroke-width="3" stroke-miterlimit="10" stroke-linecap="round" stroke-linejoin="round"/>
<path d="M52.6783 57.0441H58.9117V64.0818H52.6783V57.0441Z" stroke="#F8FAFC" stroke-width="3" stroke-miterlimit="10" stroke-linecap="round" stroke-linejoin="round"/>
<path d="M21.813 57.0441H28.0464V64.0818H21.813V57.0441Z" stroke="#F8FAFC" stroke-width="3" stroke-miterlimit="10" stroke-linecap="round" stroke-linejoin="round"/>
<path d="M56.5994 27.7874C51.1578 27.7874 46.7466 23.3761 46.7466 17.9346C46.7466 12.493 51.1578 8.08179 56.5994 8.08179C62.0409 8.08179 66.4521 12.493 66.4521 17.9346C66.4521 23.3761 62.0409 27.7874 56.5994 27.7874Z" stroke="#F8FAFC" stroke-width="3" stroke-miterlimit="10" stroke-linecap="round" stroke-linejoin="round"/>
</svg>
