<svg width="81" height="73" viewBox="0 0 81 73" fill="none" xmlns="http://www.w3.org/2000/svg">
<rect width="80" height="72" transform="translate(0.833374 0.0817871)" fill="#08254F"/>
<path d="M38.8334 37.0818C38.8334 38.7693 40.0052 40.0818 41.3334 40.0818C42.6615 40.0818 43.8334 38.6756 43.8334 37.0818C43.8334 35.488 42.6615 34.0818 41.3334 34.0818C40.0052 34.0818 38.8334 32.6755 38.8334 31.0818C38.8334 29.488 40.0052 28.0818 41.3334 28.0818C42.6615 28.0818 43.8334 29.488 43.8334 31.0818" stroke="#F8FAFC" stroke-width="3" stroke-miterlimit="10" stroke-linecap="round" stroke-linejoin="round"/>
<path d="M41.6112 28.3213V25.95" stroke="#F8FAFC" stroke-width="3" stroke-miterlimit="10" stroke-linecap="round" stroke-linejoin="round"/>
<path d="M41.6112 42.929V40.5576" stroke="#F8FAFC" stroke-width="3" stroke-miterlimit="10" stroke-linecap="round" stroke-linejoin="round"/>
<path d="M41.3334 48.0818C48.7892 48.0818 54.8334 41.8138 54.8334 34.0818C54.8334 26.3498 48.7892 20.0818 41.3334 20.0818C33.8775 20.0818 27.8334 26.3498 27.8334 34.0818C27.8334 41.8138 33.8775 48.0818 41.3334 48.0818Z" stroke="#F8FAFC" stroke-width="3" stroke-miterlimit="10" stroke-linecap="round" stroke-linejoin="round"/>
<path d="M40.2724 11.1715C35.4977 11.1715 31.0214 12.2285 27.1419 14.1662C26.545 14.4305 25.8736 14.3424 25.4259 13.8139C21.3226 9.40993 15.578 9.85034 12.5192 10.4669C11.9969 10.555 11.9969 11.4358 12.4446 11.6119C15.578 12.845 17.667 15.4874 19.0845 18.2179C19.4575 19.0106 19.3829 19.9795 18.8606 20.5961C16.7717 22.9743 15.2796 25.7928 14.3843 28.7875C14.1605 29.5802 13.5637 30.1087 12.8176 30.1087H11.4747C10.5794 30.1087 9.83337 30.9895 9.83337 32.0465V37.067C9.83337 38.124 10.5794 39.0048 11.4747 39.0048H12.8176C13.489 39.0048 14.1605 39.5333 14.3843 40.326C15.8764 45.4347 19.2337 49.8387 23.7846 53.0095C24.3069 53.3619 24.6053 53.9784 24.6053 54.683V60.144C24.6053 61.201 25.3513 62.0818 26.2466 62.0818H30.4991C31.3944 62.0818 32.1404 61.201 32.1404 60.144V59.2632C32.1404 58.0301 33.0357 57.1493 34.0802 57.3254C36.0199 57.7658 38.1089 57.942 40.1978 57.942C42.2868 57.942 44.3757 57.7658 46.3155 57.3254C47.2853 57.1493 48.2552 58.0301 48.2552 59.2632V60.144C48.2552 61.201 49.0013 62.0818 49.8966 62.0818H54.1491C55.0443 62.0818 55.7904 61.201 55.7904 60.144V54.683C55.7904 53.9784 56.0888 53.3619 56.6111 53.0095C62.8779 48.6936 66.832 42.0876 66.832 34.6008C66.9812 21.6531 54.9697 11.1715 40.2724 11.1715Z" stroke="#F8FAFC" stroke-width="3" stroke-miterlimit="10" stroke-linecap="round" stroke-linejoin="round"/>
<path d="M67.8334 35.0649C67.8334 35.0649 72.8334 35.5677 72.8334 31.0818" stroke="#F8FAFC" stroke-width="3" stroke-miterlimit="10" stroke-linecap="round" stroke-linejoin="round"/>
</svg>
