<svg width="81" height="73" viewBox="0 0 81 73" fill="none" xmlns="http://www.w3.org/2000/svg">
<rect width="80" height="72" transform="translate(0.833374 0.0817871)" fill="#08254F"/>
<path d="M53.806 17.7173L56.0956 20.8655L61.2472 16.0001" stroke="#F8FAFC" stroke-width="3" stroke-miterlimit="10" stroke-linecap="round" stroke-linejoin="round"/>
<path d="M61.4381 28.1159V45.5741H54.5693C53.3291 45.5741 52.3751 46.5281 52.3751 47.7683V54.6372H25.2814C24.0412 54.6372 23.0872 53.6832 23.0872 52.443V13.615C23.0872 12.3748 24.0412 11.4208 25.2814 11.4208H49.7993" stroke="#F8FAFC" stroke-width="3" stroke-miterlimit="10" stroke-linejoin="round"/>
<path d="M49.3223 54.637V61.8875C49.3223 63.1277 48.3683 64.0817 47.1281 64.0817H16.0276C14.7874 64.0817 13.8334 63.1277 13.8334 61.8875V23.0595C13.8334 21.8193 14.7874 20.8653 16.0276 20.8653H23.0872" stroke="#F8FAFC" stroke-width="3" stroke-miterlimit="10" stroke-linejoin="round"/>
<path d="M32.2457 26.5894H43.6938" stroke="#F8FAFC" stroke-width="3" stroke-miterlimit="10" stroke-linecap="round" stroke-linejoin="round"/>
<path d="M32.2457 33.0766H52.1844" stroke="#F8FAFC" stroke-width="3" stroke-miterlimit="10" stroke-linecap="round" stroke-linejoin="round"/>
<path d="M32.2457 39.5639H52.1844" stroke="#F8FAFC" stroke-width="3" stroke-miterlimit="10" stroke-linecap="round" stroke-linejoin="round"/>
<path d="M32.2457 46.0512H46.4604" stroke="#F8FAFC" stroke-width="3" stroke-miterlimit="10" stroke-linecap="round" stroke-linejoin="round"/>
<path d="M61.4382 45.5742L52.2798 54.6372" stroke="#F8FAFC" stroke-width="3" stroke-miterlimit="10" stroke-linejoin="round"/>
<path d="M57.5267 28.8791C63.2697 28.8791 67.9253 24.2234 67.9253 18.4804C67.9253 12.7374 63.2697 8.08179 57.5267 8.08179C51.7837 8.08179 47.1281 12.7374 47.1281 18.4804C47.1281 24.2234 51.7837 28.8791 57.5267 28.8791Z" stroke="#F8FAFC" stroke-width="3" stroke-miterlimit="10" stroke-linejoin="round"/>
</svg>
