<svg width="81" height="73" viewBox="0 0 81 73" fill="none" xmlns="http://www.w3.org/2000/svg">
<rect width="80" height="72" transform="translate(0.166626 0.0817871)" fill="#08254F"/>
<path d="M59.038 48.0882C59.038 49.3114 60.0453 50.3188 61.2685 50.3188C62.4918 50.3188 63.4991 49.3114 63.4991 48.0882C63.4991 46.865 62.4918 45.8576 61.2685 45.8576C60.0453 45.8576 59.038 44.8503 59.038 43.6271C59.038 42.4038 60.0453 41.3965 61.2685 41.3965C62.4918 41.3965 63.4991 42.4038 63.4991 43.6271" stroke="#F8FAFC" stroke-width="3" stroke-miterlimit="10" stroke-linecap="round" stroke-linejoin="round"/>
<path d="M61.1967 41.4685V39.8135" stroke="#F8FAFC" stroke-width="3" stroke-miterlimit="10" stroke-linecap="round" stroke-linejoin="round"/>
<path d="M61.1967 51.9736V50.3187" stroke="#F8FAFC" stroke-width="3" stroke-miterlimit="10" stroke-linecap="round" stroke-linejoin="round"/>
<path d="M61.1967 56.0751C66.8397 56.0751 71.4141 51.5005 71.4141 45.8576C71.4141 40.2147 66.8397 35.6402 61.1967 35.6402C55.5538 35.6402 50.9792 40.2147 50.9792 45.8576C50.9792 51.5005 55.5538 56.0751 61.1967 56.0751Z" stroke="#F8FAFC" stroke-width="3" stroke-miterlimit="10" stroke-linecap="round" stroke-linejoin="round"/>
<path d="M16.1536 48.0882C16.1536 49.3114 17.1609 50.3188 18.3841 50.3188C19.6074 50.3188 20.6147 49.3114 20.6147 48.0882C20.6147 46.865 19.6074 45.8576 18.3841 45.8576C17.1609 45.8576 16.1536 44.8503 16.1536 43.6271C16.1536 42.4038 17.1609 41.3965 18.3841 41.3965C19.6074 41.3965 20.6147 42.4038 20.6147 43.6271" stroke="#F8FAFC" stroke-width="3" stroke-miterlimit="10" stroke-linecap="round" stroke-linejoin="round"/>
<path d="M18.384 41.4685V39.8135" stroke="#F8FAFC" stroke-width="3" stroke-miterlimit="10" stroke-linecap="round" stroke-linejoin="round"/>
<path d="M18.384 51.9736V50.3187" stroke="#F8FAFC" stroke-width="3" stroke-miterlimit="10" stroke-linecap="round" stroke-linejoin="round"/>
<path d="M18.3841 56.0751C24.027 56.0751 28.6015 51.5005 28.6015 45.8576C28.6015 40.2147 24.027 35.6402 18.3841 35.6402C12.7411 35.6402 8.16663 40.2147 8.16663 45.8576C8.16663 51.5005 12.7411 56.0751 18.3841 56.0751Z" stroke="#F8FAFC" stroke-width="3" stroke-miterlimit="10" stroke-linecap="round" stroke-linejoin="round"/>
<path d="M60.8369 30.6034C60.1174 29.0204 58.5344 27.8691 56.6636 27.8691C54.7928 27.8691 53.2098 29.0204 52.4902 30.6034C51.7707 29.0204 50.1877 27.8691 48.3169 27.8691C46.4461 27.8691 44.8631 29.0204 44.1436 30.6034C43.424 29.0204 41.8411 27.8691 39.9703 27.8691C38.0995 27.8691 36.5165 29.0204 35.7969 30.6034C35.0774 29.0204 33.4944 27.8691 31.6236 27.8691C29.7528 27.8691 28.1698 29.0204 27.4503 30.6034C26.7307 29.0204 25.1478 27.8691 23.277 27.8691C21.4062 27.8691 19.8232 29.0204 19.1036 30.6034V29.0923C19.1036 17.5078 28.5296 8.08179 40.1142 8.08179C51.6987 8.08179 61.1247 17.5078 61.1247 29.0923V30.6034H60.8369Z" stroke="#F8FAFC" stroke-width="3" stroke-miterlimit="10" stroke-linecap="round" stroke-linejoin="round"/>
<path d="M41.6972 57.8739C41.6972 61.4716 38.6751 64.3498 35.0774 64.062C31.7675 63.8461 29.2491 60.9679 29.2491 57.6581V56.5788C29.2491 55.5714 30.1126 54.7079 31.12 54.7079C32.1273 54.7079 32.9907 55.5714 32.9907 56.5788V57.802C32.9907 59.1691 33.9981 60.3203 35.2933 60.3923C36.7324 60.4643 37.8836 59.313 37.8836 57.9459V50.6785C37.8836 50.1029 38.3153 49.6712 38.891 49.6712H40.6898C41.2655 49.6712 41.6972 50.1029 41.6972 50.6785V57.8739Z" stroke="#F8FAFC" stroke-width="3" stroke-miterlimit="10" stroke-linecap="round" stroke-linejoin="round"/>
<path d="M39.8263 27.8691V49.6712" stroke="#F8FAFC" stroke-width="3" stroke-miterlimit="10" stroke-linecap="round" stroke-linejoin="round"/>
<path d="M52.4183 30.6034C52.4183 30.6034 52.9939 14.054 39.8264 8.08179C26.6588 14.054 27.2344 30.6034 27.2344 30.6034" stroke="#F8FAFC" stroke-width="3" stroke-miterlimit="10" stroke-linecap="round" stroke-linejoin="round"/>
<path d="M43.9996 30.6034C43.9996 30.6034 45.007 14.7735 39.8263 8.08179C34.5736 14.7735 35.653 30.6034 35.653 30.6034" stroke="#F8FAFC" stroke-width="3" stroke-miterlimit="10" stroke-linecap="round" stroke-linejoin="round"/>
</svg>
