<svg width="34" height="34" viewBox="0 0 34 34" fill="none" xmlns="http://www.w3.org/2000/svg">
<path d="M16.7684 0.839186C17.5748 0.301787 18.5201 0.0103299 19.4891 0.00026953C20.4582 -0.00979086 21.4093 0.261979 22.2267 0.782519L29.15 5.18919H32C32.4421 5.18919 32.866 5.36478 33.1786 5.67734C33.4911 5.9899 33.6667 6.41382 33.6667 6.85585V21.8559C33.6667 22.2979 33.4911 22.7218 33.1786 23.0344C32.866 23.3469 32.4421 23.5225 32 23.5225H29.4667C29.5202 24.3341 29.3485 25.1447 28.9706 25.8649C28.5927 26.5851 28.0232 27.187 27.325 27.6042L18.8367 32.6975C18.3151 33.0102 17.718 33.1743 17.1098 33.1719C16.5017 33.1696 15.9058 33.0009 15.3867 32.6842C14.802 33.2008 14.0545 33.496 13.2746 33.5182C12.4946 33.5404 11.7316 33.2883 11.1184 32.8059L2.55171 26.0742C1.95313 25.6041 1.53335 24.9435 1.36206 24.2019C1.19076 23.4603 1.27827 22.6825 1.61004 21.9975C1.21205 21.6855 0.890283 21.287 0.669095 20.8322C0.447908 20.3774 0.333103 19.8782 0.333375 19.3725V6.85585C0.333375 6.41382 0.508969 5.9899 0.82153 5.67734C1.13409 5.36478 1.55801 5.18919 2.00004 5.18919H10.245L16.7684 0.839186ZM3.95504 19.5992L5.10837 18.5909C6.09401 17.7287 7.37856 17.2876 8.68593 17.3624C9.99331 17.4372 11.2192 18.0219 12.1 18.9909L16.6034 23.9442C17.3096 24.721 17.7534 25.7003 17.8718 26.7434C17.9903 27.7866 17.7774 28.8405 17.2634 29.7558L25.61 24.7475C25.8287 24.6165 25.9948 24.4133 26.0796 24.1729C26.1645 23.9326 26.1629 23.6701 26.075 23.4309L18.6967 13.1009C18.4947 12.8177 18.2091 12.6049 17.88 12.4923C17.551 12.3796 17.1949 12.3727 16.8617 12.4725L12.7184 13.7142C11.8537 13.9735 10.935 13.994 10.0597 13.7733C9.18434 13.5526 8.38508 13.0991 7.74671 12.4609L7.25838 11.9742C6.81496 11.5317 6.50543 10.973 6.36538 10.3624C6.22534 9.75178 6.26046 9.11405 6.46671 8.52252H3.66671V19.3725L3.95504 19.5992ZM20.4384 3.59585C20.1655 3.42204 19.848 3.33138 19.5246 3.33493C19.2011 3.33848 18.8857 3.43609 18.6167 3.61585L9.61671 9.61585L10.1034 10.1042C10.3164 10.3169 10.583 10.468 10.875 10.5414C11.167 10.6147 11.4734 10.6077 11.7617 10.5209L15.9034 9.27919C16.9028 8.9795 17.9708 8.99995 18.958 9.33768C19.9452 9.6754 20.802 10.3135 21.4084 11.1625L27.8584 20.1892H30.3334V8.52252H29.1517C28.5176 8.52244 27.8966 8.34147 27.3617 8.00085L20.4367 3.59419L20.4384 3.59585ZM7.30171 21.0975L4.60837 23.4542L13.175 30.1858L14.35 28.1325C14.5246 27.8267 14.5979 27.4734 14.5592 27.1234C14.5206 26.7734 14.3721 26.4446 14.135 26.1842L9.63337 21.2309C9.33977 20.908 8.93126 20.7132 8.49561 20.6883C8.05995 20.6634 7.63022 20.8103 7.30171 21.0975Z" fill="#1E293B"/>
</svg>
