<svg width="36" height="32" viewBox="0 0 36 32" fill="none" xmlns="http://www.w3.org/2000/svg">
<path d="M30.0442 17.1831L21.0585 26.1687H17.4327V22.5429L26.4184 13.5573L30.0442 17.1831ZM35.404 15.9219C35.404 16.3949 34.9311 16.8678 34.4582 17.3407L30.5171 21.2818L29.0983 19.863L33.197 15.7643L32.2512 14.8184L31.1477 15.9219L27.5219 12.2961L30.99 8.98564C31.3053 8.67036 31.9359 8.67036 32.4088 8.98564L34.6158 11.1926C34.9311 11.5079 34.9311 12.1385 34.6158 12.6114C34.3005 12.9267 33.9852 13.242 33.9852 13.5573C33.9852 13.8726 34.3005 14.1879 34.6158 14.5031C35.0887 14.9761 35.5617 15.449 35.404 15.9219ZM3.7178 28.3757V3.15286H14.7528V11.035H22.6349V13.3996L25.7878 10.2468V9.45857L16.3292 0H3.7178C1.98373 0 0.564941 1.41879 0.564941 3.15286V28.3757C0.564941 30.1098 1.98373 31.5286 3.7178 31.5286H22.6349C24.369 31.5286 25.7878 30.1098 25.7878 28.3757H3.7178ZM16.3292 23.8041C16.0139 23.8041 15.6987 23.9617 15.541 23.9617L14.7528 20.4936H12.3882L9.07766 23.1735L10.0235 18.9171H7.65887L6.08244 26.7993H8.44709L13.0187 22.7006L13.9646 26.3264H15.541L16.3292 26.1687V23.8041Z" fill="#1E293B"/>
</svg>
