<svg width="42" height="40" viewBox="0 0 42 40" fill="none" xmlns="http://www.w3.org/2000/svg">
<path d="M24.246 1.10893C25.6652 6.30011 35.2912 8.00141 41.691 11.3511C41.832 14.454 40.4216 17.7508 36.6928 20.3689C36.9485 26.5571 33.0081 30.0831 26.6172 32.04C26.5908 34.9666 25.4977 37.6816 22.4477 40L17.2468 36.7913L21.4252 33.7766C21.2665 31.5199 20.5789 29.1663 16.5769 27.8441L14.2586 19.6284C9.45436 18.7117 9.68355 16.8693 9.29569 15.1416L3.57208 16.9399C-0.760864 14.2072 -1.0031 10.2933 4.1239 9.58812L4.74007 3.17253L9.25161 3.97646L10.1596 0.696388L14.5318 0L16.3565 3.29065L24.246 1.10893Z" fill="#F8FAFC"/>
</svg>
