<svg width="34" height="34" viewBox="0 0 34 34" fill="none" xmlns="http://www.w3.org/2000/svg">
<path d="M31.1916 17.8367C30.7049 17.1906 28.8966 16.7457 28.1316 15.5829C27.3666 14.4201 26.7404 11.902 24.7934 10.9345C22.8464 9.96691 19.125 9.69531 17 9.69531C14.875 9.69531 11.1562 9.96094 9.20652 10.9325C7.25683 11.904 6.63328 14.4201 5.86828 15.5809C5.10328 16.7417 3.29503 17.1906 2.80828 17.8367C2.32152 18.4829 1.97886 22.5675 2.18738 24.5703C2.39589 26.5731 2.78503 27.7578 2.78503 27.7578H8.49597C9.43097 27.7578 9.73511 27.4065 11.6476 27.2266C13.746 27.0273 15.8046 26.9609 17 26.9609C18.1953 26.9609 20.3203 27.0273 22.4174 27.2266C24.3299 27.4079 24.644 27.7578 25.569 27.7578H31.2136C31.2136 27.7578 31.6027 26.5731 31.8112 24.5703C32.0197 22.5675 31.6757 18.4829 31.1916 17.8367ZM26.5625 27.7578H30.2812V28.8203H26.5625V27.7578ZM3.71871 27.7578H7.43746V28.8203H3.71871V27.7578Z" stroke="#1E293B" stroke-width="2.125" stroke-linecap="round" stroke-linejoin="round"/>
<path d="M24.2031 22.7879C23.8107 22.3344 22.5317 21.9559 20.8383 21.7022C19.145 21.4485 18.5274 21.3828 17.0133 21.3828C15.4993 21.3828 14.8106 21.4917 13.1877 21.7022C11.5647 21.9127 10.3461 22.2872 9.82352 22.7879C9.03927 23.5476 10.1881 24.4003 11.0899 24.5039C11.9638 24.6035 13.7109 24.567 17.0206 24.567C20.3303 24.567 22.0775 24.6035 22.9514 24.5039C23.8518 24.3943 24.9183 23.6008 24.2031 22.7879ZM28.659 18.3978C28.6553 18.3451 28.6322 18.2956 28.5942 18.2588C28.5562 18.222 28.506 18.2006 28.4531 18.1986C27.6689 18.1707 26.8727 18.2265 25.4602 18.6429C24.7396 18.8532 24.0629 19.192 23.4627 19.6429C23.3113 19.7611 23.3651 20.0806 23.555 20.1144C24.7192 20.251 25.8904 20.3197 27.0626 20.3203C27.7658 20.3203 28.4916 20.1211 28.6265 19.4942C28.6952 19.1328 28.7062 18.7627 28.659 18.3978ZM5.3411 18.3978C5.34483 18.3451 5.3679 18.2956 5.4059 18.2588C5.44389 18.222 5.49413 18.2006 5.54696 18.1986C6.33122 18.1707 7.12743 18.2265 8.53989 18.6429C9.26051 18.8532 9.9372 19.192 10.5374 19.6429C10.6888 19.7611 10.635 20.0806 10.4451 20.1144C9.28087 20.251 8.1097 20.3197 6.93751 20.3203C6.23427 20.3203 5.50845 20.1211 5.37364 19.4942C5.30491 19.1328 5.29393 18.7627 5.3411 18.3978Z" fill="#1E293B"/>
<path d="M28.6875 15.0078H29.75M4.25 15.0078H5.3125M5.17969 16.2695C5.17969 16.2695 8.25762 15.4727 17 15.4727C25.7424 15.4727 28.8203 16.2695 28.8203 16.2695" stroke="#1E293B" stroke-width="2.125" stroke-linecap="round" stroke-linejoin="round"/>
<path d="M27.0186 10.2125L23.8398 7.03367L25.2885 5.58504L27.0186 7.32032L32.076 2.25781L33.5246 3.70644L27.0186 10.2125Z" fill="#1E293B"/>
</svg>
