<svg width="390" height="614" viewBox="0 0 390 614" fill="none" xmlns="http://www.w3.org/2000/svg">
<path fill-rule="evenodd" clip-rule="evenodd" d="M218.348 7.70582C212.167 3.92899 205.3 2.38393 198.433 1.01054C195.515 1.01054 192.596 1.01054 189.678 0.838867C188.648 1.18221 187.618 1.52556 186.588 1.69724C179.206 3.07063 172.511 5.8174 166.674 10.4526C150.021 23.6715 148.305 49.4225 163.584 64.3581C165.405 66.2807 167.584 67.7858 169.77 69.2952C171.292 70.3467 172.818 71.4002 174.227 72.5985C175.429 73.6285 176.631 75.5169 176.631 76.8903C176.837 85.0275 176.857 93.1646 176.878 101.302C176.892 106.727 176.905 112.152 176.974 117.577C177.146 120.152 176.287 121.01 173.712 121.01C169.678 121.01 165.644 121.053 161.609 121.096C157.575 121.139 153.541 121.182 149.506 121.182C147.103 121.182 145.73 122.041 145.043 124.101C142.355 131.267 142.265 138.694 142.174 146.154C142.16 147.272 142.147 148.39 142.124 149.508H247.875C246.674 141.268 245.472 133.371 244.27 125.646C243.755 122.041 241.695 120.839 237.918 121.01C231.625 121.267 225.332 121.236 218.895 121.204H218.893H218.892H218.89H218.888C216.723 121.193 214.542 121.182 212.339 121.182V116.719C212.339 113.491 212.367 110.25 212.395 106.999C212.465 98.8358 212.536 90.6099 212.167 82.3839C211.996 76.2036 213.884 72.9418 219.206 69.68C242.554 55.6028 241.867 21.6114 218.348 7.70582ZM205.3 39.4655C205.3 44.959 200.665 48.7358 194.313 48.7358C188.82 48.7358 184.013 44.2723 183.841 38.7788C183.841 33.4569 188.648 29.3367 194.828 29.3367C200.493 29.3367 205.3 34.1436 205.3 39.4655ZM43.927 252.684V434.658C43.7553 434.658 43.5836 434.658 43.412 435.173C43.3042 434.85 43.1288 434.595 42.9707 434.364L42.9705 434.364L42.9704 434.364C42.8767 434.227 42.7891 434.099 42.7253 433.972C31.5665 406.161 26.0729 377.319 24.8712 347.448C24.3562 331.826 25.5579 316.375 28.3047 300.925C28.9914 297.319 27.7897 294.744 24.8712 292.341C18.3597 286.799 12.0718 281.034 5.73686 275.225L5.73676 275.225L5.73669 275.225L5.7366 275.225L5.70975 275.201L5.67535 275.169L5.63119 275.129C4.15133 273.772 2.66883 272.413 1.18022 271.053C0.752754 270.733 0.458336 270.279 0.131321 269.775C-0.0669899 269.47 -0.27729 269.146 -0.536514 268.822C5.41146 263.766 11.245 258.71 16.964 253.753L16.9709 253.747L16.9733 253.745L16.9775 253.742C21.1577 250.119 25.2768 246.549 29.3347 243.071C25.7647 239.233 22.2875 235.441 18.8307 231.672L18.8299 231.671C15.6378 228.191 12.4631 224.729 9.24891 221.268C-8.43349 236.547 -26.6309 252.341 -45 268.307L-44.8827 268.454L-44.7216 268.656L-44.6651 268.728L-44.6599 268.734C-44.1315 269.401 -43.6805 269.969 -43.1116 270.538C-40.2707 273.161 -37.4299 275.794 -34.5862 278.43L-34.584 278.432L-34.5837 278.432C-26.2583 286.15 -17.9086 293.89 -9.46352 301.44C-5.85837 304.701 -3.96997 307.792 -4.48499 312.77C-7.40344 343.156 -5.51505 373.371 1.18022 403.242C14.0558 461.096 43.412 509.337 86.5021 549.336C109.335 570.624 135.772 587.105 163.584 601.354C165.701 602.463 167.878 603.454 170.254 604.535C171.922 605.294 173.688 606.098 175.601 607.019C175.109 605.771 174.643 604.565 174.19 603.395C172.588 599.253 171.161 595.564 169.42 592.083C165.987 584.701 164.957 577.148 165.129 569.251C165.129 566.332 165.214 563.414 165.3 560.495C165.386 557.577 165.472 554.658 165.472 551.74C165.644 493.371 165.644 435.173 165.644 376.804C165.644 376.554 165.654 376.284 165.664 376.006C165.697 375.138 165.732 374.193 165.472 373.543C165.42 373.439 165.368 373.333 165.314 373.224C164.654 371.892 163.836 370.242 162.725 369.766C158.605 368.278 154.332 366.943 150.06 365.608L150.059 365.607C147.923 364.94 145.787 364.272 143.669 363.586C140.979 362.689 138.316 361.82 135.67 360.956L135.658 360.952C131.723 359.668 127.825 358.396 123.927 357.062C123.412 356.89 122.897 356.375 122.21 355.689C135.601 351.397 148.476 347.277 161.523 343.156C164.442 342.126 165.644 340.753 165.644 337.663C165.472 314.315 165.472 290.796 165.472 267.448V252.684C138.1 251.768 111.11 252.074 84.1955 252.38H84.1952H84.1949H84.1945H84.1942H84.1937H84.1933H84.1929H84.1924C70.7643 252.532 57.3551 252.684 43.927 252.684ZM133.884 370.796V549.508L133.47 549.17C127.12 543.99 121.568 539.46 115.687 535.259C103.871 526.322 94.0611 515.38 84.2508 504.438L84.2506 504.438C82.9426 502.979 81.6346 501.52 80.3218 500.066C75.6866 494.916 74.6566 489.079 74.6566 482.555V410.109C74.6566 402.123 74.8082 394.213 74.9603 386.278L74.9604 386.277C75.0371 382.272 75.114 378.26 75.1716 374.229C75.1716 373.199 75.1716 371.998 75.3433 370.796H133.884ZM134.034 340.968C133.927 341.182 133.798 341.44 133.712 341.783H75.1716V281.01C75.8578 281.01 76.5012 280.968 77.1446 280.925L77.1458 280.925L77.1471 280.925C77.7905 280.882 78.4339 280.839 79.1201 280.839C96.1158 280.667 113.283 280.667 130.279 280.667C132.682 280.667 134.399 281.354 134.399 284.101C134.399 293.457 134.356 302.856 134.313 312.255C134.27 321.654 134.227 331.053 134.227 340.41C134.227 340.581 134.142 340.753 134.034 340.968ZM314.313 370.452H224.7V252.684C248.426 251.776 272.034 252.054 295.662 252.334C312.211 252.529 328.769 252.725 345.386 252.512V281.01H255.601V341.611H345.558V434.658C345.73 434.658 345.901 434.701 346.073 434.744L346.073 434.744C346.245 434.787 346.417 434.83 346.588 434.83L346.588 434.829C348.82 428.992 351.052 423.156 352.94 417.319C361.867 388.65 365.815 359.294 364.614 329.251C364.27 320.152 362.897 311.053 361.352 302.126C360.665 297.491 361.695 294.573 365.472 291.654C371.763 286.827 377.804 281.5 383.808 276.207C384.85 275.288 385.891 274.371 386.931 273.457C387.739 272.765 388.313 271.84 388.968 270.788L388.968 270.787L388.97 270.786C389.289 270.272 389.628 269.728 390.022 269.165C388.772 268.063 387.525 266.965 386.281 265.868L385.949 265.576L385.923 265.553C377.206 257.873 368.636 250.322 360.322 242.899C363.669 239.208 367.017 235.603 370.364 231.998C373.712 228.393 377.06 224.787 380.408 221.096C387.536 227.255 394.747 233.498 402.042 239.813C412.845 249.164 423.831 258.674 435 268.306C434.95 268.371 434.899 268.437 434.848 268.503L434.763 268.612C434.683 268.716 434.602 268.821 434.521 268.927L434.485 268.974C433.41 270.371 432.208 271.932 430.88 273.113C423.155 280.152 415.429 287.191 407.532 294.229C406.005 295.548 404.506 296.895 403.001 298.247C400.784 300.239 398.554 302.243 396.202 304.186C394.142 305.903 393.798 307.963 394.142 310.367C395.858 326.504 395.858 342.47 394.657 358.607C390.193 422.47 367.532 478.95 324.957 527.019C295.086 560.839 258.691 585.731 218.176 604.959C217.469 605.312 216.681 605.585 215.646 605.943C215.173 606.107 214.648 606.288 214.056 606.504C214.794 604.711 215.533 602.998 216.251 601.332C217.871 597.576 219.39 594.053 220.58 590.366C222.125 585.731 223.67 580.753 223.67 575.946C223.841 517.577 223.841 459.036 223.841 400.667V395.86H255.601V548.993C256.627 548.309 257.572 547.706 258.456 547.142L258.458 547.141L258.459 547.141C259.793 546.29 260.99 545.527 262.125 544.701C278.949 531.997 294.571 517.748 308.133 501.268C312.768 495.774 315.172 489.766 315 482.212C314.743 455.81 314.775 429.311 314.807 402.861V402.844V402.828V402.812C314.818 394.021 314.828 385.236 314.828 376.461C314.828 375.455 314.711 374.39 314.578 373.198L314.578 373.195L314.578 373.194L314.578 373.194L314.578 373.193C314.485 372.351 314.384 371.446 314.313 370.452ZM108.82 221.611C112.768 217.148 115.515 211.998 115.344 204.959C105.386 204.959 95.7728 204.959 86.5024 205.302C82.8972 205.131 79.9788 205.817 77.0603 208.221C71.5668 212.856 63.3264 211.998 58.1762 206.847C54.5711 203.242 54.7427 198.264 58.8629 195.174C60.7513 193.972 62.9831 192.942 65.2149 192.598C68.6483 192.083 72.0818 191.912 75.6869 191.912H304.013C305.66 191.912 307.345 191.855 309.042 191.799C312.475 191.684 315.96 191.567 319.292 191.912C323.241 192.255 327.532 193.457 330.794 195.517C335.258 198.435 335.086 203.757 331.137 207.362C326.846 211.311 319.12 212.856 314.657 209.079C309.678 204.959 304.528 204.787 298.863 205.131C296.796 205.245 294.653 205.207 292.536 205.168L292.535 205.168C291.486 205.149 290.444 205.131 289.421 205.131H273.97C274.313 215.603 280.322 222.813 287.532 228.307C307.962 243.929 335.601 243.414 356.03 227.62C371.137 215.946 374.056 197.92 363.24 182.298C357.919 174.229 350.193 169.251 341.095 166.504C330.622 163.414 319.979 162.899 309.163 162.899H92.511C82.2105 162.899 71.9101 162.899 61.7814 163.757C49.4209 164.616 38.2621 168.907 29.5067 178.178C17.3179 190.882 16.2878 208.221 26.9316 220.925C47.5324 245.474 87.8758 245.817 108.82 221.611ZM210.107 252.856V264.53V407.191C210.107 419.544 210.097 431.887 210.086 444.224L210.086 444.26C210.054 481.289 210.022 518.268 210.279 555.345C210.451 571.482 208.562 586.761 200.15 601.01C198.534 603.746 197.278 606.751 195.99 609.831L195.99 609.833C195.5 611.005 195.006 612.188 194.485 613.371C194.394 613.31 194.308 613.254 194.228 613.203C193.854 612.961 193.596 612.795 193.455 612.512C188.992 601.869 184.528 591.225 180.236 580.409C179.549 578.693 179.206 576.633 179.206 574.744V258.349V253.028C189.507 252.856 199.464 252.856 210.107 252.856ZM246.845 205.13H142.468C141.609 213.714 142.983 221.611 145.043 229.68C145.729 232.255 146.759 233.285 149.678 233.285C160.322 233.285 170.923 233.371 181.523 233.457C192.124 233.542 202.725 233.628 213.369 233.628C222.124 233.628 231.051 233.285 239.978 232.942C241.18 232.77 243.068 231.912 243.412 231.053C247.017 222.813 247.36 214.058 246.845 205.13Z" fill="url(#paint0_linear_116_647)" fill-opacity="0.64"/>
<defs>
<linearGradient id="paint0_linear_116_647" x1="371.819" y1="196.049" x2="-105.04" y2="396.25" gradientUnits="userSpaceOnUse">
<stop stop-color="#DCE9FF" stop-opacity="0.26"/>
<stop offset="1" stop-color="#0F172A" stop-opacity="0"/>
</linearGradient>
</defs>
</svg>
