<svg width="35" height="33" viewBox="0 0 35 33" fill="none" xmlns="http://www.w3.org/2000/svg">
<path d="M29.4792 17.9738L20.4936 26.9595H16.8678V23.3337L25.8534 14.3481L29.4792 17.9738ZM34.8391 16.7127C34.8391 17.1856 34.3661 17.6586 33.8932 18.1315L29.9521 22.0726L28.5334 20.6538L32.6321 16.5551L31.6862 15.6092L30.5827 16.7127L26.9569 13.0869L30.4251 9.77641C30.7404 9.46113 31.3709 9.46113 31.8439 9.77641L34.0509 11.9834C34.3661 12.2987 34.3661 12.9293 34.0509 13.4022C33.7356 13.7175 33.4203 14.0328 33.4203 14.3481C33.4203 14.6633 33.7356 14.9786 34.0509 15.2939C34.5238 15.7668 34.9967 16.2398 34.8391 16.7127ZM3.15286 29.1665V3.94363H14.1879V11.8258H22.07V14.1904L25.2229 11.0376V10.2493L15.7643 0.790771H3.15286C1.41879 0.790771 0 2.20956 0 3.94363V29.1665C0 30.9006 1.41879 32.3193 3.15286 32.3193H22.07C23.8041 32.3193 25.2229 30.9006 25.2229 29.1665H3.15286ZM15.7643 24.5948C15.449 24.5948 15.1337 24.7525 14.9761 24.7525L14.1879 21.2843H11.8232L8.51272 23.9643L9.45857 19.7079H7.09393L5.5175 27.5901H7.88214L12.4538 23.4913L13.3996 27.1171H14.9761L15.7643 26.9595V24.5948Z" fill="#F8FAFC"/>
</svg>
