<svg width="34" height="35" viewBox="0 0 34 35" fill="none" xmlns="http://www.w3.org/2000/svg">
<path d="M31.1916 18.6756C30.7049 18.0295 28.8966 17.5846 28.1316 16.4218C27.3666 15.259 26.7404 12.7409 24.7934 11.7734C22.8464 10.8058 19.125 10.5342 17 10.5342C14.875 10.5342 11.1562 10.7999 9.20652 11.7714C7.25683 12.7429 6.63328 15.259 5.86828 16.4198C5.10328 17.5806 3.29503 18.0295 2.80828 18.6756C2.32152 19.3218 1.97886 23.4064 2.18738 25.4092C2.39589 27.4121 2.78503 28.5967 2.78503 28.5967H8.49597C9.43097 28.5967 9.73511 28.2455 11.6476 28.0655C13.746 27.8663 15.8046 27.7999 17 27.7999C18.1953 27.7999 20.3203 27.8663 22.4174 28.0655C24.3299 28.2468 24.644 28.5967 25.569 28.5967H31.2136C31.2136 28.5967 31.6027 27.4121 31.8112 25.4092C32.0197 23.4064 31.6757 19.3218 31.1916 18.6756ZM26.5625 28.5967H30.2812V29.6592H26.5625V28.5967ZM3.71871 28.5967H7.43746V29.6592H3.71871V28.5967Z" stroke="#F8FAFC" stroke-width="2.125" stroke-linecap="round" stroke-linejoin="round"/>
<path d="M24.2031 23.6269C23.8107 23.1733 22.5317 22.7948 20.8383 22.5411C19.145 22.2875 18.5274 22.2217 17.0133 22.2217C15.4993 22.2217 14.8106 22.3306 13.1877 22.5411C11.5647 22.7516 10.3461 23.1262 9.82352 23.6269C9.03927 24.3866 10.1881 25.2392 11.0899 25.3428C11.9638 25.4424 13.7109 25.4059 17.0206 25.4059C20.3303 25.4059 22.0775 25.4424 22.9514 25.3428C23.8518 25.2332 24.9183 24.4397 24.2031 23.6269ZM28.659 19.2368C28.6553 19.184 28.6322 19.1345 28.5942 19.0977C28.5562 19.061 28.506 19.0395 28.4531 19.0375C27.6689 19.0096 26.8727 19.0654 25.4602 19.4818C24.7396 19.6922 24.0629 20.031 23.4627 20.4819C23.3113 20.6001 23.3651 20.9195 23.555 20.9534C24.7192 21.0899 25.8904 21.1586 27.0626 21.1592C27.7658 21.1592 28.4916 20.96 28.6265 20.3331C28.6952 19.9717 28.7062 19.6016 28.659 19.2368ZM5.3411 19.2368C5.34483 19.184 5.3679 19.1345 5.4059 19.0977C5.44389 19.061 5.49413 19.0395 5.54696 19.0375C6.33122 19.0096 7.12743 19.0654 8.53989 19.4818C9.26051 19.6922 9.9372 20.031 10.5374 20.4819C10.6888 20.6001 10.635 20.9195 10.4451 20.9534C9.28087 21.0899 8.1097 21.1586 6.93751 21.1592C6.23427 21.1592 5.50845 20.96 5.37364 20.3331C5.30491 19.9717 5.29393 19.6016 5.3411 19.2368Z" fill="#F8FAFC"/>
<path d="M28.6875 15.8467H29.75M4.25 15.8467H5.3125M5.17969 17.1085C5.17969 17.1085 8.25762 16.3116 17 16.3116C25.7424 16.3116 28.8203 17.1085 28.8203 17.1085" stroke="#F8FAFC" stroke-width="2.125" stroke-linecap="round" stroke-linejoin="round"/>
<path d="M27.0186 11.0514L23.8398 7.87259L25.2885 6.42397L27.0186 8.15925L32.076 3.09674L33.5246 4.54537L27.0186 11.0514Z" fill="#F8FAFC"/>
</svg>
