<svg width="34" height="34" viewBox="0 0 34 34" fill="none" xmlns="http://www.w3.org/2000/svg">
<path d="M16.435 1.15852C17.2415 0.621123 18.1867 0.329666 19.1558 0.319605C20.1248 0.309545 21.0759 0.581315 21.8933 1.10186L28.8167 5.50852H31.6667C32.1087 5.50852 32.5326 5.68412 32.8452 5.99668C33.1577 6.30924 33.3333 6.73316 33.3333 7.17519V22.1752C33.3333 22.6172 33.1577 23.0411 32.8452 23.3537C32.5326 23.6663 32.1087 23.8419 31.6667 23.8419H29.1333C29.1868 24.6534 29.0151 25.464 28.6372 26.1842C28.2593 26.9045 27.6899 27.5063 26.9917 27.9235L18.5033 33.0169C17.9818 33.3295 17.3846 33.4936 16.7765 33.4912C16.1684 33.4889 15.5725 33.3202 15.0533 33.0035C14.4686 33.5202 13.7212 33.8153 12.9412 33.8375C12.1612 33.8598 11.3982 33.6077 10.785 33.1252L2.21833 26.3935C1.61976 25.9235 1.19998 25.2628 1.02868 24.5212C0.857391 23.7797 0.944895 23.0018 1.27667 22.3169C0.878679 22.0048 0.556909 21.6063 0.335721 21.1515C0.114534 20.6967 -0.000270962 20.1976 4.80222e-07 19.6919V7.17519C4.80222e-07 6.73316 0.175595 6.30924 0.488156 5.99668C0.800716 5.68412 1.22464 5.50852 1.66667 5.50852H9.91167L16.435 1.15852ZM3.62167 19.9185L4.775 18.9102C5.76064 18.048 7.04518 17.6069 8.35256 17.6817C9.65994 17.7565 10.8858 18.3412 11.7667 19.3102L16.27 24.2635C16.9762 25.0403 17.42 26.0197 17.5384 27.0628C17.6569 28.1059 17.444 29.1598 16.93 30.0752L25.2767 25.0669C25.4953 24.9358 25.6614 24.7326 25.7463 24.4923C25.8312 24.2519 25.8295 23.9895 25.7417 23.7502L18.3633 13.4202C18.1613 13.1371 17.8757 12.9243 17.5466 12.8116C17.2176 12.6989 16.8615 12.692 16.5283 12.7919L12.385 14.0335C11.5203 14.2929 10.6016 14.3133 9.72629 14.0926C8.85096 13.872 8.05171 13.4184 7.41333 12.7802L6.925 12.2935C6.48158 11.851 6.17205 11.2923 6.03201 10.6817C5.89196 10.0711 5.92708 9.43338 6.13333 8.84185H3.33333V19.6919L3.62167 19.9185ZM20.105 3.91519C19.8322 3.74138 19.5147 3.65072 19.1912 3.65427C18.8677 3.65782 18.5523 3.75543 18.2833 3.93519L9.28333 9.93519L9.77 10.4235C9.98301 10.6363 10.2497 10.7874 10.5417 10.8607C10.8336 10.9341 11.1401 10.927 11.4283 10.8402L15.57 9.59852C16.5694 9.29884 17.6375 9.31929 18.6246 9.65701C19.6118 9.99474 20.4686 10.6328 21.075 11.4819L27.525 20.5085H30V8.84185H28.8183C28.1842 8.84177 27.5632 8.6608 27.0283 8.32019L20.1033 3.91352L20.105 3.91519ZM6.96833 21.4169L4.275 23.7735L12.8417 30.5052L14.0167 28.4519C14.1913 28.146 14.2645 27.7928 14.2259 27.4427C14.1872 27.0927 14.0387 26.7639 13.8017 26.5035L9.3 21.5502C9.00639 21.2274 8.59789 21.0326 8.16223 21.0076C7.72657 20.9827 7.29685 21.1296 6.96833 21.4169Z" fill="#F8FAFC"/>
</svg>
