<svg width="120" height="69" viewBox="0 0 120 69" fill="none" xmlns="http://www.w3.org/2000/svg">
<path d="M60.1559 0.0135486C60.6978 0.121937 61.2397 0.243875 61.7275 0.541944C63.5837 1.63938 63.6378 4.322 61.7952 5.43299C61.3752 5.69041 61.2262 5.94784 61.2397 6.43559C61.2804 7.34334 61.2533 8.2511 61.2533 9.14531C61.2533 9.2537 61.2533 9.34854 61.2533 9.49757C61.9443 9.49757 62.6082 9.51112 63.272 9.48402C63.5701 9.47048 63.7327 9.56532 63.7733 9.84984C63.8682 10.4595 63.963 11.0828 64.0579 11.7331C61.2397 11.7331 58.4894 11.7331 55.7119 11.7331C55.7255 11.0557 55.6984 10.3782 55.9422 9.7279C55.9964 9.56531 56.1048 9.49757 56.2945 9.49757C56.9313 9.49757 57.5681 9.48402 58.2049 9.48402C58.4081 9.48402 58.4758 9.41628 58.4623 9.21305C58.4487 8.14271 58.4623 7.07237 58.4352 6.00203C58.4352 5.89364 58.3403 5.74461 58.2455 5.66332C57.9745 5.43299 57.6494 5.27041 57.4055 5.01298C56.1997 3.83426 56.3351 1.80196 57.6494 0.758722C58.11 0.39291 58.6384 0.176132 59.221 0.067743C59.3023 0.0541944 59.3836 0.0270972 59.4649 0C59.6952 0.0135486 59.9255 0.0135486 60.1559 0.0135486ZM59.8307 3.78006C60.332 3.78006 60.6978 3.48199 60.6978 3.04844C60.6978 2.62843 60.3184 2.24907 59.8713 2.24907C59.3836 2.24907 59.0042 2.57423 59.0042 2.99424C59.0178 3.4278 59.3971 3.78006 59.8307 3.78006Z" fill="white"/>
<path d="M47.962 34.2373C47.962 29.4547 47.962 24.6856 47.962 19.8758C51.1459 19.8758 54.3163 19.7674 57.5544 19.8758C57.5544 20.2958 57.5544 20.6752 57.5544 21.041C57.5544 22.8836 57.5544 24.7398 57.568 26.5824C57.568 26.8263 57.4731 26.9346 57.2428 27.0159C56.2131 27.3411 55.197 27.6663 54.1402 28.005C54.1944 28.0592 54.235 28.0998 54.2757 28.1134C54.7905 28.2895 55.3054 28.4521 55.8338 28.6282C56.3351 28.7908 56.8499 28.9398 57.3377 29.116C57.4325 29.1566 57.5002 29.3056 57.5544 29.414C57.5815 29.4818 57.568 29.5902 57.568 29.6715C57.568 34.278 57.568 38.871 57.5544 43.4775C57.5544 43.9381 57.5273 44.3988 57.5273 44.8594C57.5138 45.4827 57.5951 46.0788 57.8661 46.6614C58.0422 47.0137 58.1777 47.393 58.3538 47.8401C57.988 47.664 57.6899 47.5421 57.4054 47.393C55.2105 46.2685 53.124 44.9678 51.3221 43.2878C47.9214 40.131 45.6046 36.3238 44.5884 31.7579C44.06 29.4005 43.911 27.0159 44.1413 24.6178C44.182 24.2249 44.0329 23.981 43.7484 23.7236C42.8542 22.9243 41.9735 22.0978 41.0929 21.2849C41.0387 21.2307 40.998 21.1765 40.9438 21.1087C42.3935 19.8487 43.8297 18.6022 45.2252 17.3964C45.7536 17.9655 46.2684 18.5345 46.8104 19.1171C46.0517 19.7674 45.2659 20.4584 44.4529 21.1494C44.5071 21.2171 44.5342 21.2849 44.5884 21.3255C45.2117 21.8946 45.8213 22.4636 46.4581 23.0055C46.6885 23.1952 46.7833 23.3985 46.7291 23.683C46.5123 24.9023 46.4175 26.1217 46.4581 27.3546C46.553 29.7121 46.9865 31.9883 47.8672 34.1831C47.8807 34.2102 47.9078 34.2373 47.9214 34.278C47.9349 34.2373 47.9485 34.2373 47.962 34.2373ZM55.0615 43.3014C55.0615 38.5458 55.0615 33.8715 55.0615 29.1973C53.517 29.1973 51.986 29.1973 50.4414 29.1973C50.4279 29.2921 50.4279 29.3869 50.4279 29.4682C50.4143 30.4166 50.3872 31.3515 50.3872 32.2999C50.3872 34.2102 50.3872 36.107 50.3872 38.0174C50.3872 38.5322 50.4685 38.9929 50.8343 39.3994C51.715 40.3749 52.5686 41.3775 53.6253 42.1768C54.0995 42.5155 54.5466 42.8813 55.0615 43.3014ZM55.0479 26.9075C55.0615 26.8533 55.0886 26.8263 55.0886 26.7992C55.0886 25.3224 55.1021 23.832 55.1021 22.3552C55.1021 22.1384 54.9667 22.0842 54.777 22.0842C53.4357 22.0842 52.0808 22.0842 50.7395 22.0978C50.6311 22.0978 50.5363 22.1113 50.4279 22.1113C50.4279 23.7372 50.4279 25.3224 50.4279 26.9075C51.986 26.9075 53.5305 26.9075 55.0479 26.9075Z" fill="white"/>
<path d="M69.3011 29.1702C66.9301 29.1702 64.5997 29.1702 62.2287 29.1702C62.2287 26.0811 62.2287 23.0055 62.2287 19.8758C65.4126 19.7539 68.5694 19.9029 71.7534 19.8623C71.7534 20.621 71.7534 21.3526 71.7534 22.1113C69.3959 22.1113 67.052 22.1113 64.6674 22.1113C64.6674 23.7101 64.6674 25.2682 64.6674 26.894C67.0113 26.894 69.3688 26.894 71.7669 26.894C71.7669 29.3734 71.7669 31.7986 71.7669 34.2373C71.794 34.2373 71.8211 34.2509 71.8482 34.2509C72.0243 33.7902 72.2005 33.3296 72.3495 32.8689C73.054 30.6063 73.3656 28.2895 73.2708 25.9185C73.2437 25.2004 73.1353 24.4823 73.0134 23.7778C72.9592 23.412 73.0405 23.1817 73.3385 22.9514C73.9211 22.5042 74.4766 22.0029 75.0321 21.5152C75.127 21.4339 75.1812 21.312 75.276 21.1765C74.4766 20.472 73.6908 19.781 72.9321 19.1035C73.4605 18.521 73.9889 17.9655 74.5173 17.3829C75.9128 18.5887 77.3489 19.8352 78.8257 21.1087C78.7309 21.2307 78.6225 21.3797 78.5006 21.4881C77.8909 22.0436 77.2812 22.5991 76.6579 23.1546C76.3599 23.412 76.0754 23.683 75.7637 23.9404C75.6012 24.0759 75.5741 24.2385 75.6012 24.4281C75.7366 25.7017 75.7366 26.9617 75.6418 28.2353C75.2895 33.2754 73.5011 37.7329 70.1411 41.5265C67.7836 44.1956 64.9113 46.1601 61.7138 47.6776C61.6325 47.7182 61.5377 47.7453 61.3887 47.7995C61.5784 47.3388 61.768 46.9459 61.9035 46.5259C62.0255 46.1601 62.1474 45.7672 62.1474 45.3878C62.1609 40.7813 62.1609 36.1612 62.1609 31.5547C62.1609 31.4328 62.1609 31.3108 62.1609 31.1754C63.0145 31.1754 63.8274 31.1754 64.6674 31.1754C64.6674 35.1857 64.6674 39.1961 64.6674 43.2607C64.8707 43.1252 65.0332 43.0304 65.1823 42.922C66.51 41.9194 67.743 40.7949 68.8133 39.4942C69.1791 39.0606 69.3688 38.5864 69.3553 37.9903C69.3282 35.2128 69.3417 32.4218 69.3417 29.6444C69.3417 29.5089 69.3146 29.3598 69.3011 29.1702Z" fill="white"/>
<path d="M53.5981 16.1093C53.6116 16.6648 53.3949 17.0713 53.0833 17.4235C51.4303 19.3339 48.2464 19.3068 46.6206 17.3693C45.7806 16.3667 45.8618 14.9983 46.8238 13.9957C47.5148 13.2641 48.3954 12.9254 49.3709 12.8577C50.1703 12.7899 50.9832 12.7899 51.7961 12.7899C57.5001 12.7899 63.2041 12.7899 68.8945 12.7899C69.748 12.7899 70.5881 12.8306 71.4145 13.0744C72.1326 13.2912 72.7423 13.6841 73.1623 14.3209C74.0158 15.5538 73.7855 16.9764 72.5932 17.8977C70.981 19.1442 68.7996 19.1849 67.1874 17.9519C66.6183 17.5184 66.1441 16.9493 66.117 16.1229C66.537 16.1229 66.9435 16.1229 67.3364 16.1229C67.5803 16.1229 67.8377 16.1364 68.0816 16.1229C68.5287 16.0958 68.9351 16.1093 69.328 16.4345C69.6803 16.7326 70.29 16.6106 70.6287 16.299C70.9403 16.0145 70.9539 15.5945 70.6016 15.3642C70.3442 15.2016 70.0055 15.1067 69.6938 15.0796C69.3009 15.039 68.8809 15.0796 68.488 15.0796C62.486 15.0796 56.4704 15.0796 50.4684 15.0796C50.1838 15.0796 49.9129 15.0932 49.6419 15.1338C49.4658 15.1609 49.2896 15.2422 49.1406 15.3371C48.8154 15.5809 48.8019 15.9738 49.0864 16.2584C49.4929 16.6648 50.1432 16.7326 50.5768 16.3667C50.8071 16.1771 51.0374 16.1229 51.3219 16.1364C52.0536 16.1093 52.8123 16.1093 53.5981 16.1093Z" fill="white"/>
<path d="M61.0774 19.8894C61.0774 20.201 61.0774 20.4991 61.0774 20.8107C61.0774 24.5637 61.0774 28.3166 61.0774 32.0696C61.0774 35.9716 61.0639 39.86 61.091 43.762C61.1045 45.0356 60.9555 46.2414 60.2916 47.366C60.1155 47.664 59.9935 48.0028 59.8445 48.3415C59.8039 48.3144 59.7768 48.3008 59.7632 48.2737C59.4109 47.4337 59.0587 46.5937 58.72 45.7401C58.6658 45.6047 58.6387 45.4421 58.6387 45.293C58.6387 36.9742 58.6387 28.6418 58.6387 20.323C58.6387 20.1875 58.6387 20.052 58.6387 19.903C59.4516 19.8894 60.2374 19.8894 61.0774 19.8894Z" fill="white"/>
<path d="M23.8184 55.0615C24.9429 55.0615 26.0674 55.0615 27.1784 55.0615C27.1784 55.0886 27.192 55.1022 27.192 55.1293C27.0971 55.1428 26.9887 55.1699 26.8939 55.1835C26.4603 55.2377 26.2842 55.4002 26.2436 55.8473C26.23 55.9422 26.23 56.037 26.23 56.1319C26.23 58.6113 26.23 61.0771 26.2436 63.5565C26.2436 63.9765 26.3249 64.3965 26.4197 64.8165C26.7855 66.483 28.4384 67.4856 30.1591 67.2417C31.4056 67.0791 32.3811 66.4424 33.2075 65.521C33.2753 65.4533 33.3024 65.3314 33.3024 65.2365C33.3024 62.2558 33.3024 59.2887 33.3024 56.308C33.3024 56.2132 33.3024 56.1183 33.2888 56.0235C33.2346 55.3731 33.1263 55.2512 32.4759 55.1699C32.4488 55.1699 32.4082 55.1564 32.3811 55.0751C33.4921 55.0751 34.603 55.0751 35.714 55.0751C35.714 55.1022 35.7276 55.1157 35.7276 55.1428C35.6327 55.1564 35.5379 55.1699 35.4431 55.1835C34.9824 55.2512 34.8469 55.3867 34.8063 55.8473C34.7927 55.9557 34.7927 56.0777 34.7927 56.1996C34.7927 59.6003 34.7927 63.001 34.7927 66.3882C34.7927 66.6185 34.7927 66.8488 34.8198 67.0791C34.874 67.4856 35.0637 67.6617 35.4837 67.7159C35.565 67.7295 35.6463 67.743 35.714 67.743C35.714 67.7701 35.714 67.7837 35.714 67.8108C34.9282 67.8108 34.1424 67.8108 33.3295 67.8108C33.3295 67.2011 33.3295 66.5914 33.3295 65.9682C33.3024 65.9546 33.2888 65.9411 33.2617 65.9275C33.1533 66.0359 33.045 66.1578 32.9366 66.2527C31.3243 67.7701 29.4546 68.285 27.3274 67.6888C25.9455 67.3095 24.9564 66.0765 24.821 64.6539C24.7803 64.2881 24.7668 63.9223 24.7668 63.5565C24.7668 61.1584 24.7668 58.7603 24.7668 56.3622C24.7668 56.1454 24.7668 55.9422 24.7397 55.7254C24.6855 55.3054 24.55 55.197 24.1164 55.1564C24.0216 55.1428 23.9403 55.1293 23.8455 55.1293C23.8184 55.1157 23.8184 55.0886 23.8184 55.0615Z" fill="white"/>
<path d="M11.1235 55.0615C11.2319 55.048 11.2997 55.0344 11.381 55.0344C13.061 55.048 14.7275 55.0615 16.4075 55.0751C17.1256 55.0886 17.7759 55.2918 18.3585 55.7119C19.1443 56.2673 19.3882 57.0803 19.334 57.988C19.2662 59.3158 18.5346 60.2506 17.4778 60.9823C17.3559 61.0636 17.234 61.1313 17.0849 61.2397C17.7759 62.2558 18.4127 63.2855 19.1308 64.261C19.6998 65.0604 20.2959 65.8462 20.9598 66.5507C21.8947 67.5533 22.965 67.6753 24.1844 67.0385C24.2386 67.0114 24.3063 66.9843 24.3605 66.9572C24.3876 66.9707 24.4012 66.9978 24.4283 67.0114C24.3741 67.0791 24.3334 67.174 24.2657 67.2282C23.7508 67.6075 23.1682 67.8243 22.545 67.9056C21.5966 68.0275 20.6482 68.0004 19.8895 67.3366C19.4153 66.9165 18.9953 66.4288 18.6295 65.914C17.6811 64.5862 16.7869 63.2313 15.8791 61.89C15.7707 61.7274 15.6623 61.6597 15.4591 61.6732C14.8359 61.6868 14.2126 61.6732 13.5758 61.6732C13.5623 61.7816 13.5487 61.8629 13.5487 61.9307C13.5487 63.4617 13.5487 64.9926 13.5487 66.5236C13.5487 66.7269 13.5623 66.9301 13.6029 67.1333C13.6707 67.5262 13.8197 67.6482 14.2126 67.7024C14.2939 67.7159 14.3617 67.7295 14.4429 67.7295C14.4429 67.7566 14.4429 67.7701 14.4429 67.7972C13.3591 67.7972 12.2752 67.7972 11.1913 67.7972C11.1913 67.7701 11.1913 67.7566 11.1777 67.7295C11.2455 67.7159 11.3132 67.7024 11.381 67.6888C11.8687 67.6075 12.0042 67.4585 12.0448 66.9707C12.0584 66.754 12.0719 66.5507 12.0719 66.334C12.0719 63.0416 12.0719 59.7493 12.0719 56.457C12.0719 56.2132 12.0584 55.9557 12.0042 55.7119C11.9229 55.3054 11.801 55.2106 11.381 55.1564C11.3268 55.1428 11.2726 55.1428 11.2184 55.1293C11.1777 55.1428 11.1642 55.1157 11.1235 55.0615ZM13.5352 61.3345C14.2262 61.3345 14.9036 61.3752 15.5675 61.321C16.5023 61.2397 17.2611 60.8468 17.6946 59.9526C18.0875 59.1261 18.0604 58.2725 17.7488 57.4325C17.4643 56.6603 17.0443 55.9964 16.2449 55.6712C15.3778 55.3189 14.4565 55.4002 13.5352 55.3867C13.5352 57.4054 13.5352 59.37 13.5352 61.3345Z" fill="white"/>
<path d="M6.34075 60.6436C6.65236 60.7384 6.92334 60.8197 7.19431 60.9281C8.33239 61.3752 8.90143 62.283 9.05047 63.4482C9.2266 64.7488 8.87434 65.9276 7.96658 66.9166C7.46528 67.4721 6.8285 67.7295 6.11042 67.7837C5.31105 67.8379 4.49814 67.8515 3.68522 67.865C2.56069 67.8786 1.43615 67.865 0.311618 67.865C0.216778 67.865 0.108389 67.865 0.0135486 67.865C0.0135486 67.8379 0.0135486 67.7973 0 67.7702C0.067743 67.7566 0.149035 67.7431 0.216778 67.7295C0.636784 67.6753 0.785819 67.5534 0.840013 67.1469C0.880659 66.876 0.894208 66.5914 0.894208 66.3069C0.894208 62.9604 0.894208 59.6004 0.894208 56.2539C0.894208 56.1861 0.894208 56.1184 0.894208 56.0506C0.867111 55.3732 0.785819 55.2919 0.121937 55.17C0.0812916 55.1564 0.0406458 55.1293 0.0135486 55.048C0.0948402 55.0345 0.162583 55.0209 0.243875 55.0209C1.69358 55.0345 3.15682 55.0345 4.60653 55.0616C5.58202 55.0887 6.47623 55.3597 7.15366 56.1048C8.37304 57.4326 8.12916 59.3971 6.65236 60.4404C6.54398 60.5081 6.46268 60.5623 6.34075 60.6436ZM2.37101 61.1991C2.37101 62.134 2.37101 63.0282 2.37101 63.9224C2.37101 64.6269 2.38455 65.3314 2.3981 66.0224C2.4252 66.7947 2.96714 67.2553 3.59038 67.3366C4.22716 67.4315 4.89105 67.4721 5.54138 67.445C6.40849 67.4044 7.14011 67.0521 7.43818 66.1579C7.85819 64.8843 7.76335 63.6378 7.11302 62.4591C6.8285 61.9443 6.42204 61.5107 5.81235 61.3888C4.70137 61.1449 3.56328 61.2126 2.37101 61.1991ZM2.38455 60.9823C3.22457 60.9281 4.02394 60.9281 4.8233 60.8333C5.43299 60.7655 5.88009 60.3997 6.13752 59.8307C6.21881 59.6275 6.3272 59.4242 6.39494 59.221C6.84204 57.8797 6.38139 56.43 5.31105 55.8203C4.4033 55.3055 3.4007 55.319 2.38455 55.319C2.38455 57.1887 2.38455 59.0449 2.38455 60.9823Z" fill="white"/>
<path d="M39.6839 57.1209C39.6839 57.3106 39.6839 57.4054 39.6839 57.5003C39.6839 60.4674 39.6839 63.4346 39.6839 66.3882C39.6839 66.5778 39.6839 66.7675 39.6974 66.9707C39.7381 67.4449 39.8465 67.5669 40.3071 67.6617C40.402 67.6753 40.4832 67.7024 40.5781 67.7295C40.5781 67.7566 40.5781 67.7837 40.5645 67.7972C39.7652 67.7972 38.9658 67.7972 38.1664 67.7972C38.1664 67.7837 38.1529 67.7566 38.1529 67.743C38.2342 67.7295 38.3155 67.7159 38.3968 67.7024C38.8845 67.6617 39.0064 67.5398 39.0877 67.052C39.1148 66.9165 39.1148 66.7811 39.1148 66.6456C39.1148 63.5429 39.1284 60.4403 39.1013 57.3512C39.1013 56.9041 38.9929 56.4299 38.871 55.9964C38.7084 55.4273 38.329 55.1835 37.7329 55.1564C37.6109 55.1564 37.4755 55.1293 37.3535 55.1157C37.3535 55.0886 37.3535 55.0615 37.3535 55.0344C37.4484 55.0209 37.5432 55.0073 37.6516 55.0073C38.2477 55.0073 38.8439 55.0209 39.44 55.0073C39.6568 55.0073 39.8058 55.0751 39.9684 55.2377C43.0168 58.4893 46.0788 61.7274 49.1273 64.9791C49.195 65.0468 49.2492 65.1417 49.3169 65.223C49.344 65.2094 49.3711 65.1959 49.3982 65.1688C49.3982 65.0739 49.3982 64.9791 49.3982 64.8978C49.3982 62.0661 49.3982 59.2345 49.3982 56.4028C49.3982 56.2267 49.3847 56.0506 49.3711 55.888C49.3169 55.3867 49.1679 55.2377 48.6666 55.1699C48.5989 55.1564 48.5311 55.1293 48.4769 55.048C49.2763 55.048 50.0892 55.048 50.8886 55.048C50.8886 55.0751 50.9021 55.0886 50.9021 55.1157C50.8208 55.1293 50.7395 55.1564 50.6582 55.1699C50.1976 55.2377 50.0215 55.4138 49.9673 55.8744C49.9402 56.1048 49.9266 56.3351 49.9266 56.5654C49.9266 60.2371 49.9266 63.8952 49.9266 67.5669C49.9266 67.6753 49.9266 67.7972 49.9266 68.0004C46.4988 64.3559 43.1252 60.779 39.6839 57.1209Z" fill="white"/>
<path d="M66.1987 60.6978C66.1716 62.0255 65.9007 63.2991 65.2503 64.4643C63.9903 66.6998 62.0664 67.8921 59.5057 68.0547C58.1238 68.136 56.7824 67.9463 55.6173 67.1604C53.7205 65.8869 52.7856 64.0849 52.9211 61.7952C53.0295 60.0203 53.6392 58.4216 54.845 57.0803C56.2676 55.4951 58.0831 54.8041 60.1967 54.8448C61.7819 54.8719 63.2045 55.3054 64.3968 56.4029C65.6568 57.5409 66.2258 59.0042 66.1987 60.6978ZM60.3051 67.3908C61.7412 67.3366 63.218 66.6456 64.2748 65.2501C65.6568 63.4346 65.7245 61.4565 64.7626 59.4377C63.9903 57.8255 62.7032 56.7416 61.0909 56.0099C58.8283 54.9938 56.4437 55.5628 54.8992 57.5003C53.8289 58.8281 53.6934 60.3455 54.005 61.9578C54.3031 63.5023 55.116 64.7759 56.2541 65.8327C57.3108 66.7946 58.5302 67.3772 60.3051 67.3908Z" fill="white"/>
<path d="M119.946 67.8244C118.957 67.8244 117.981 67.8244 116.992 67.8244C116.992 67.7973 116.992 67.7566 117.006 67.7566C117.412 67.6076 117.466 67.4721 117.29 67.0114C116.775 65.6972 116.247 64.383 115.719 63.0823C115.597 62.7707 115.475 62.4591 115.339 62.1475C115.299 62.0662 115.163 61.9714 115.082 61.9714C113.957 61.9578 112.833 61.9714 111.708 61.9578C111.559 61.9578 111.492 61.9985 111.437 62.1339C110.787 63.7869 110.137 65.4263 109.5 67.0656C109.324 67.5398 109.351 67.5805 109.893 67.8244C109.188 67.8244 108.565 67.8244 107.928 67.8244C107.955 67.7837 107.969 67.7431 107.982 67.7431C108.565 67.716 108.836 67.3231 109.026 66.8489C109.554 65.5482 110.069 64.2475 110.584 62.9469C111.627 60.332 112.657 57.7171 113.713 55.1022C113.754 55.0074 113.863 54.9396 113.93 54.8583C113.998 54.9396 114.093 55.0074 114.12 55.1022C115.597 58.7603 117.074 62.432 118.55 66.0901C118.686 66.4288 118.821 66.7676 118.997 67.0927C119.174 67.4585 119.472 67.6889 119.892 67.7431C119.932 67.7431 119.959 67.7702 120 67.7973C119.959 67.7837 119.959 67.7973 119.946 67.8244ZM111.641 61.5784C112.806 61.5784 113.93 61.5784 115.095 61.5784C114.513 60.1287 113.957 58.7061 113.361 57.2293C112.779 58.7061 112.21 60.1287 111.641 61.5784Z" fill="white"/>
<path d="M96.1953 55.0615C97.1708 55.0615 98.1463 55.0615 99.176 55.0615C98.6883 55.3731 98.6747 55.4273 98.8915 55.9422C100.152 59.0584 101.412 62.1745 102.672 65.3043C102.699 65.3856 102.739 65.4533 102.793 65.5752C102.848 65.4669 102.888 65.3991 102.915 65.3178C104.175 62.1745 105.435 59.0177 106.695 55.8744C106.736 55.7796 106.763 55.6983 106.79 55.6035C106.858 55.3189 106.804 55.2377 106.506 55.1699C106.465 55.1564 106.425 55.1428 106.397 55.0751C107.021 55.0751 107.657 55.0751 108.294 55.0751C108.267 55.1157 108.267 55.1564 108.254 55.1564C107.522 55.197 107.305 55.7796 107.088 56.3215C105.544 60.1287 104.026 63.9359 102.495 67.743C102.441 67.865 102.346 67.9733 102.279 68.0817C102.211 67.9733 102.116 67.865 102.062 67.743C100.531 63.9901 99.0134 60.2235 97.4824 56.4706C97.2386 55.8744 97.0082 55.2241 96.1682 55.1835C96.1818 55.1293 96.1953 55.0886 96.1953 55.0615Z" fill="white"/>
<path d="M87.673 67.743C87.7949 67.7295 87.9304 67.7159 88.0523 67.6888C88.3639 67.6346 88.5401 67.4449 88.5807 67.1333C88.6078 66.9437 88.6214 66.754 88.6214 66.5643C88.6214 63.1907 88.6214 59.8035 88.6214 56.4299C88.6214 56.3486 88.6214 56.2809 88.6214 56.1996C88.5536 55.5493 88.6078 55.1835 87.7272 55.1564C87.7001 55.1564 87.6865 55.1293 87.6052 55.0615C88.7975 55.0615 89.9356 55.0615 91.0601 55.0615C91.0601 55.0886 91.0737 55.1022 91.0737 55.1293C90.9788 55.1428 90.884 55.1699 90.8027 55.1699C90.3691 55.2106 90.1659 55.4138 90.1388 55.8473C90.1253 56.0641 90.1117 56.2673 90.1117 56.4841C90.1117 59.3564 90.0982 62.2423 90.1117 65.1146C90.1117 65.5346 90.1795 65.9546 90.2878 66.3611C90.4369 66.903 90.884 67.1875 91.4124 67.2959C92.5505 67.5127 93.6885 67.4856 94.8266 67.3501C95.6124 67.2553 96.0596 66.7404 96.2221 65.9682C96.3034 65.5752 96.3576 65.1823 96.466 64.7759C96.466 65.7785 96.466 66.7946 96.466 67.8243C93.5531 67.8243 90.613 67.8243 87.6865 67.8243C87.673 67.7972 87.673 67.7701 87.673 67.743Z" fill="white"/>
<path d="M80.0858 56.8499C79.9503 56.6873 79.8148 56.5112 79.6658 56.3622C79.0832 55.7389 78.3651 55.346 77.498 55.2783C76.2245 55.1835 75.2083 55.5222 74.6257 56.5248C73.8535 57.839 74.2735 59.2074 75.669 59.8171C76.5225 60.1829 77.4167 60.481 78.2839 60.7926C79.0832 61.0771 79.7607 61.5513 80.262 62.2287C81.0884 63.3397 81.0884 65.0468 80.3026 66.2256C79.6658 67.1875 78.7852 67.7159 77.6471 67.7701C76.1703 67.8379 74.707 67.8514 73.2031 67.892C73.2031 66.6049 73.2031 65.3856 73.2031 64.1526C73.2302 64.1526 73.2573 64.1526 73.2709 64.1391C73.2844 64.2204 73.298 64.3017 73.298 64.383C73.3522 64.7488 73.3793 65.1281 73.4606 65.4939C73.6909 66.4965 74.3683 67.0385 75.3438 67.2553C76.2651 67.4585 77.1864 67.472 78.1213 67.2553C79.4355 66.9436 80.3161 65.6972 80.0994 64.3559C79.991 63.6378 79.5439 63.1229 78.9206 62.7978C78.2703 62.4591 77.5658 62.2152 76.8883 61.9307C76.387 61.7139 75.8587 61.5377 75.3709 61.2939C74.0973 60.6571 73.5283 59.5597 73.5554 58.1912C73.6096 56.1454 75.127 54.7634 77.2406 54.8176C77.9316 54.8312 78.6226 55.0073 79.3271 55.0886C79.5032 55.1157 79.5845 55.2106 79.6387 55.3731C79.8013 55.8338 79.9774 56.2809 80.14 56.7415C80.1536 56.7957 80.1265 56.8228 80.0858 56.8499Z" fill="white"/>
<path d="M86.061 67.8244C84.9364 67.8244 83.8119 67.8244 82.6874 67.8244C82.6874 67.7973 82.6738 67.7702 82.6738 67.7566C82.7551 67.7431 82.8364 67.7295 82.9313 67.7295C83.3648 67.6889 83.5138 67.5669 83.568 67.1334C83.5951 66.9166 83.6222 66.6998 83.6222 66.4695C83.6222 63.1095 83.6222 59.7494 83.6222 56.3894C83.6222 56.1726 83.5951 55.9693 83.568 55.7526C83.5003 55.3461 83.3377 55.2106 82.9448 55.17C82.8635 55.1564 82.7822 55.1564 82.7009 55.0751C83.8255 55.0751 84.9635 55.0751 86.0881 55.0751C86.0881 55.0887 86.0881 55.1158 86.1016 55.1293C85.9526 55.1564 85.8171 55.17 85.6681 55.2106C85.2887 55.3055 85.1668 55.4274 85.1397 55.8203C85.1261 56.01 85.1261 56.1997 85.1261 56.4029C85.1261 59.8578 85.1261 63.3127 85.1261 66.7676C85.1261 66.876 85.1261 66.9844 85.1397 67.0792C85.1939 67.4857 85.3835 67.6753 85.79 67.716C85.8848 67.7295 85.9797 67.7431 86.0745 67.7431C86.0745 67.7702 86.0745 67.7973 86.061 67.8244Z" fill="white"/>
<path d="M55.739 16.1229C58.5029 16.1229 61.2262 16.1229 63.9766 16.1229C64.0172 16.8274 63.9901 17.5184 63.7056 18.1687C63.6785 18.2364 63.5295 18.3042 63.4346 18.3177C62.7301 18.3448 62.0256 18.3719 61.3346 18.3719C59.6546 18.3719 57.9881 18.3448 56.3081 18.3448C56.0777 18.3448 55.9964 18.2635 55.9422 18.0603C55.7797 17.4235 55.6713 16.8003 55.739 16.1229Z" fill="white"/>
</svg>
