<svg width="56" height="56" viewBox="0 0 56 56" fill="none" xmlns="http://www.w3.org/2000/svg">
<rect width="56" height="56" rx="28" fill="#16A34A"/>
<path d="M39.8092 16.1835C38.2735 14.64 36.4444 13.4162 34.4284 12.5836C32.4124 11.7509 30.2499 11.3259 28.0672 11.3335C18.9214 11.3335 11.4675 18.7501 11.4675 27.8501C11.4675 30.7667 12.238 33.6001 13.6786 36.1001L11.3335 44.6667L20.1275 42.3667C22.5563 43.6834 25.2866 44.3834 28.0672 44.3834C37.2129 44.3834 44.6668 36.9667 44.6668 27.8668C44.6668 23.4501 42.9415 19.3001 39.8092 16.1835ZM28.0672 41.5834C25.5881 41.5834 23.1593 40.9167 21.032 39.6667L20.5295 39.3667L15.3033 40.7334L16.6936 35.6667L16.3586 35.1501C14.9813 32.9617 14.25 30.4322 14.2481 27.8501C14.2481 20.2834 20.4457 14.1168 28.0504 14.1168C31.7355 14.1168 35.2028 15.5501 37.7992 18.1501C39.0847 19.4234 40.1035 20.9379 40.7965 22.6058C41.4894 24.2737 41.8428 26.0619 41.836 27.8668C41.8695 35.4334 35.6719 41.5834 28.0672 41.5834ZM35.6383 31.3167C35.2196 31.1167 33.176 30.1167 32.8075 29.9667C32.4223 29.8334 32.1543 29.7668 31.8695 30.1667C31.5848 30.5834 30.7975 31.5167 30.563 31.7834C30.3285 32.0667 30.0772 32.1001 29.6585 31.8834C29.2397 31.6834 27.8997 31.2334 26.3251 29.8334C25.0856 28.7334 24.2648 27.3834 24.0136 26.9668C23.7791 26.5501 23.9801 26.3334 24.1978 26.1168C24.3821 25.9334 24.6166 25.6334 24.8176 25.4001C25.0186 25.1668 25.1023 24.9834 25.2363 24.7168C25.3703 24.4334 25.3033 24.2001 25.2028 24.0001C25.1023 23.8001 24.2648 21.7668 23.9298 20.9334C23.5948 20.1334 23.243 20.2334 22.9918 20.2168H22.1878C21.903 20.2168 21.4675 20.3168 21.0822 20.7334C20.7137 21.1501 19.6417 22.1501 19.6417 24.1834C19.6417 26.2168 21.1325 28.1834 21.3335 28.4501C21.5345 28.7334 24.2648 32.9001 28.4189 34.6834C29.4072 35.1167 30.1777 35.3667 30.7807 35.5501C31.769 35.8667 32.6735 35.8167 33.3938 35.7167C34.1978 35.6001 35.8561 34.7167 36.1911 33.7501C36.5429 32.7834 36.5429 31.9667 36.4256 31.7834C36.3084 31.6001 36.0571 31.5167 35.6383 31.3167Z" fill="#F8FAFC"/>
</svg>
